<?xml version="1.0" standalone="no"?>
<!DOCTYPE svg PUBLIC "-//W3C//DTD SVG 20010904//EN"
 "http://www.w3.org/TR/2001/REC-SVG-20010904/DTD/svg10.dtd">
<svg version="1.0" xmlns="http://www.w3.org/2000/svg"
 width="512.000000pt" height="512.000000pt" viewBox="0 0 512.000000 512.000000"
 preserveAspectRatio="xMidYMid meet">

<g transform="translate(0.000000,512.000000) scale(0.100000,-0.100000)"
fill="#000000" stroke="none">
<path d="M3960 3894 c-172 -117 -368 -234 -541 -324 l-146 -75 31 -25 c17 -14
222 -186 455 -383 233 -197 425 -356 427 -354 4 4 -94 1238 -98 1243 -2 1 -59
-36 -128 -82z"/>
<path d="M1545 2334 c-15 -35 -92 -901 -81 -911 3 -3 163 129 356 292 l352
298 -129 66 c-131 69 -232 130 -385 233 -48 32 -90 58 -92 58 -3 0 -13 -16
-21 -36z"/>
<path d="M4190 1684 c-157 -24 -370 -37 -571 -32 -171 4 -199 2 -194 -10 44
-114 422 -1012 426 -1012 4 0 387 908 446 1058 6 14 5 14 -107 -4z"/>
</g>
</svg>
